<svg width="76" height="24" viewBox="0 0 76 24" fill="none" xmlns="http://www.w3.org/2000/svg">
<path d="M0.176 23V0.599998H8.4C10.192 0.599998 11.664 0.909332 12.816 1.528C13.9893 2.12533 14.864 2.94667 15.44 3.992C16.016 5.016 16.304 6.15733 16.304 7.416C16.304 8.78133 15.9413 10.0293 15.216 11.16C14.512 12.2907 13.4027 13.112 11.888 13.624L16.528 23H11.824L7.664 14.168H4.272V23H0.176ZM4.272 11.16H8.144C9.50933 11.16 10.512 10.8293 11.152 10.168C11.792 9.50667 12.112 8.632 12.112 7.544C12.112 6.47733 11.792 5.624 11.152 4.984C10.5333 4.344 9.52 4.024 8.112 4.024H4.272V11.16ZM17.5535 23V0.599998H25.2015C27.8255 0.599998 29.9802 1.06933 31.6655 2.008C33.3722 2.92533 34.6308 4.22667 35.4415 5.912C36.2735 7.576 36.6895 9.53867 36.6895 11.8C36.6895 14.0613 36.2735 16.0347 35.4415 17.72C34.6308 19.384 33.3722 20.6853 31.6655 21.624C29.9802 22.5413 27.8255 23 25.2015 23H17.5535ZM21.6495 19.48H25.0095C26.8868 19.48 28.3695 19.1813 29.4575 18.584C30.5455 17.9653 31.3242 17.0907 31.7935 15.96C32.2628 14.808 32.4975 13.4213 32.4975 11.8C32.4975 10.2 32.2628 8.824 31.7935 7.672C31.3242 6.52 30.5455 5.63467 29.4575 5.016C28.3695 4.39733 26.8868 4.088 25.0095 4.088H21.6495V19.48ZM37.7435 23V0.599998H45.9675C47.7595 0.599998 49.2315 0.909332 50.3835 1.528C51.5568 2.12533 52.4315 2.94667 53.0075 3.992C53.5835 5.016 53.8715 6.15733 53.8715 7.416C53.8715 8.78133 53.5088 10.0293 52.7835 11.16C52.0795 12.2907 50.9702 13.112 49.4555 13.624L54.0955 23H49.3915L45.2315 14.168H41.8395V23H37.7435ZM41.8395 11.16H45.7115C47.0768 11.16 48.0795 10.8293 48.7195 10.168C49.3595 9.50667 49.6795 8.632 49.6795 7.544C49.6795 6.47733 49.3595 5.624 48.7195 4.984C48.1008 4.344 47.0875 4.024 45.6795 4.024H41.8395V11.16ZM64.913 23.384C62.801 23.384 60.9557 22.904 59.377 21.944C57.7983 20.984 56.5717 19.6507 55.697 17.944C54.8223 16.216 54.385 14.2107 54.385 11.928C54.385 9.624 54.833 7.59733 55.729 5.848C56.6463 4.07733 57.937 2.70133 59.601 1.72C61.2863 0.717333 63.281 0.216 65.585 0.216C68.209 0.216 70.385 0.845332 72.113 2.104C73.841 3.36267 74.961 5.10133 75.473 7.32H70.897C70.5557 6.27467 69.937 5.464 69.041 4.888C68.145 4.29067 66.993 3.992 65.585 3.992C63.345 3.992 61.617 4.70667 60.401 6.136C59.185 7.544 58.577 9.48533 58.577 11.96C58.577 14.4347 59.1743 16.3547 60.369 17.72C61.585 19.064 63.2277 19.736 65.297 19.736C67.3237 19.736 68.849 19.192 69.873 18.104C70.9183 16.9947 71.5477 15.544 71.761 13.752H66.097V10.68H75.889V23H72.113L71.793 20.056C71.0677 21.1227 70.161 21.944 69.073 22.52C67.985 23.096 66.5983 23.384 64.913 23.384Z" fill="black"/>
</svg>
